<svg id="Layer_1" data-name="Layer 1" xmlns="http://www.w3.org/2000/svg" width="352" height="142" viewBox="0 0 352 142"><defs><style>.cls-1{fill:#31b1af;}.cls-2,.cls-5{fill:#fff;}.cls-3{fill:#4c4a9e;}.cls-3,.cls-5{fill-rule:evenodd;}.cls-4{fill:#fff200;}</style></defs><ellipse class="cls-1" cx="49.73" cy="71" rx="45.91" ry="70.3"/><ellipse class="cls-2" cx="46.25" cy="71" rx="45.91" ry="70.3"/><path class="cls-3" d="M54.44,22.91S34.68,40.81,34.68,69.18,41,111.44,49.26,128.85c.58,1.08,1,.27.19-1.5S36.57,104,36.57,71.92c0-31.3,16.7-46,18.46-47.74C56.36,22.9,55.62,22.22,54.44,22.91Z"/><path class="cls-3" d="M35,71.53c-4.25,7.19-8.65,16.14-8.9,17.46s-1,2.74.93,3.67c1,.59.25,1.22-.83.78S23,92.32,24.36,89.09a95.17,95.17,0,0,1,6.41-12.82C33,72.9,34.09,71,35,71.53Z"/><path class="cls-3" d="M35.27,92.46s2.64.3,8.31-1.27c4.56-1.25,9.35-2.69,11.35-1.91s4.26,3.43,5,4.06,1.22.39-.44-1.56S56.15,87.23,54,87.42,42.85,90.21,40.7,90.7,34.34,92.17,35.27,92.46Z"/><path class="cls-3" d="M42.34,84.81c.56-1,1.81-1,1.41-.2s-1.46,2.2-1,3.7,2.2,4.18,2.34,7.21-.53,11.2-.39,13.33.59,5.33,1.32,6c1.59-.15,2.94.75,2.87,1.49a5.14,5.14,0,0,1-1.25,2.47,5.91,5.91,0,0,0-1.71,3.3,6.41,6.41,0,0,1-3,4.16c-1.37.85-1.15-.27-.1-1.13a7.63,7.63,0,0,0,2.76-4.55c.62-2.52,1.61-1.87,1.64-3.49,0-1.23-1.54-1.13-1.54-1.13-.34.07-.9-1.52-1.32-3.13a46.77,46.77,0,0,1-.81-11.54c.2-5.77-.14-8-1.56-10.67S42.34,84.81,42.34,84.81Z"/><path class="cls-3" d="M52.65,86.3a3.78,3.78,0,0,0,2.87-.82c.75-.65,1.92-1.3,2.35.43a12.45,12.45,0,0,0,3.52,6.91c.39.49.91.49-.33-1.53a11.83,11.83,0,0,1-1.92-5.35c-.26-2-1.44-2.84-2.64-2.35S54.31,85,52.88,85.42C51.8,85.78,52.39,86.3,52.65,86.3Z"/><path class="cls-3" d="M54.8,35.1c-.36-1.69,1.3-1,1.53,2.78s-1,6.26-5.12,11.12-5.87,7.56-5.93,9.71,3.13,4.54,3.13,7.54-3.88,7.3-4.27,7.92-.2-.65.91-3.13,2.67-4.17,1.27-6.85S44.1,61,44.1,58.35s2.65-5.57,6.07-10.23S56.2,40.26,54.8,35.1Z"/><path class="cls-3" d="M50.28,71.14c1.32.14,2.25-.44,3.48-1.18a21.56,21.56,0,0,1,2.54-1.27,32.48,32.48,0,0,0,5.18,1.52c.54,0,1.52.34.49-2.5s-5.23-13-5.43-14.18a15.37,15.37,0,0,1,.15-3c0-1-.19-1.52-4.84-8.37-4.65-6.46-4.94-6.94-5.43-8.51s-.05-3.28,1-3.72a4,4,0,0,1,1.86-.34c-.69-1.32-1.23-2.49-1.47-2.89s-.59,0-1,.54-1.56,1.76-2.83.3S41.38,24.57,41.38,22a3.93,3.93,0,0,1,3.13-3.77c1.08-.34,2.69.1,3,2.55s1.12,2.73,2.34,2.69,1.28.88,1,1.85c.73-.68,1.42-1.51.78-2.54s-2.3,0-3.08-1,.78-3.13-2.64-4.84c-1.61-.29-3.91.2-5.48,3.18s.59,6.65,2.45,8.27,2.64,1.32,3.62.14a9.07,9.07,0,0,0,.88-1l.44,1.07c-1.52.64-3.33,2.64-2.5,4.5a29.3,29.3,0,0,0,5.14,9.05c3.52,4.21,5,6.85,5.14,7.63s-.84,2.15-.1,4.11,4.2,12.52,5.92,15.36a19.13,19.13,0,0,1-4.11-1.57c-1.08-.63-1.76-.09-2.64.4S50.23,70.7,50.28,71.14Z"/><ellipse class="cls-4" cx="46.09" cy="39.95" rx="1.17" ry="2.33"/><ellipse class="cls-4" cx="44.72" cy="20.84" rx="1.18" ry="0.67" transform="matrix(0.84, -0.54, 0.54, 0.84, -4.16, 27.54)"/><path class="cls-3" d="M46.72,70.47s-2.66,4-2.91,6.31,0,6.7-.86,9.19-1.07.52-.83-3,.32-7.68,2.16-10.45C45.91,70,46.72,70.47,46.72,70.47Z"/><path class="cls-2" d="M119.64,108.3v11.76h-1.38l-7.06-8.77v8.77h-1.68V108.3h1.38l7,8.77V108.3Z"/><path class="cls-2" d="M130,114.68v5.38h-1.53v-1.18a3.3,3.3,0,0,1-2.92,1.28c-2,0-3.3-1.08-3.3-2.62s.93-2.61,3.58-2.61h2.56v-.32c0-1.36-.79-2.15-2.39-2.15a4.48,4.48,0,0,0-2.82,1l-.67-1.21a5.91,5.91,0,0,1,3.68-1.14C128.6,111.07,130,112.24,130,114.68Zm-1.61,2.65v-1.24h-2.49c-1.6,0-2,.62-2,1.38s.74,1.44,2,1.44A2.58,2.58,0,0,0,128.37,117.33Z"/><path class="cls-2" d="M138,119.53a3,3,0,0,1-1.95.63,2.55,2.55,0,0,1-2.82-2.79v-4.89h-1.51v-1.33h1.51v-2h1.61v2h2.56v1.33h-2.56v4.82a1.32,1.32,0,0,0,1.4,1.5,2,2,0,0,0,1.26-.43Z"/><path class="cls-2" d="M148.22,111.15v8.91h-1.53v-1.35a3.63,3.63,0,0,1-3,1.45c-2.3,0-3.83-1.26-3.83-3.88v-5.13h1.62v4.94c0,1.75.87,2.62,2.4,2.62,1.68,0,2.75-1,2.75-3v-4.6Z"/><path class="cls-2" d="M156.07,111.07v1.56a2.36,2.36,0,0,0-.37,0c-1.73,0-2.8,1.06-2.8,3v4.44h-1.61v-8.91h1.54v1.5A3.38,3.38,0,0,1,156.07,111.07Z"/><path class="cls-2" d="M165.09,114.68v5.38h-1.53v-1.18a3.28,3.28,0,0,1-2.92,1.28c-2,0-3.29-1.08-3.29-2.62s.92-2.61,3.58-2.61h2.55v-.32c0-1.36-.79-2.15-2.39-2.15a4.51,4.51,0,0,0-2.82,1l-.67-1.21a5.91,5.91,0,0,1,3.68-1.14C163.72,111.07,165.09,112.24,165.09,114.68Zm-1.61,2.65v-1.24H161c-1.59,0-2.05.62-2.05,1.38s.74,1.44,2,1.44A2.57,2.57,0,0,0,163.48,117.33Z"/><path class="cls-2" d="M168.08,107.59h1.61v12.47h-1.61Z"/><path class="cls-2" d="M187,112.39c0,2.56-1.85,4.1-4.91,4.1h-2.9v3.57h-1.68V108.3h4.58C185.16,108.3,187,109.84,187,112.39Zm-1.68,0c0-1.68-1.13-2.63-3.28-2.63H179.2V115h2.85C184.2,115,185.33,114.07,185.33,112.39Z"/><path class="cls-2" d="M193.88,111.07v1.56a2.49,2.49,0,0,0-.37,0c-1.73,0-2.81,1.06-2.81,3v4.44h-1.61v-8.91h1.54v1.5A3.4,3.4,0,0,1,193.88,111.07Z"/><path class="cls-2" d="M195,115.6a4.63,4.63,0,1,1,4.64,4.56A4.43,4.43,0,0,1,195,115.6Zm7.63,0a3,3,0,1,0-6,0,3,3,0,1,0,6,0Z"/><path class="cls-2" d="M214.84,107.59v12.47h-1.55v-1.42a3.75,3.75,0,0,1-3.17,1.52,4.55,4.55,0,0,1,0-9.09,3.77,3.77,0,0,1,3.1,1.43v-4.91Zm-1.6,8a3,3,0,1,0-6,0,3,3,0,1,0,6,0Z"/><path class="cls-2" d="M226.19,111.15v8.91h-1.53v-1.35a3.61,3.61,0,0,1-3,1.45c-2.31,0-3.83-1.26-3.83-3.88v-5.13h1.61v4.94c0,1.75.87,2.62,2.4,2.62a2.62,2.62,0,0,0,2.76-3v-4.6Z"/><path class="cls-2" d="M228.44,115.6a4.44,4.44,0,0,1,4.7-4.53,4,4,0,0,1,3.63,1.9l-1.23.78a2.77,2.77,0,0,0-2.42-1.27,3.14,3.14,0,0,0,0,6.27,2.78,2.78,0,0,0,2.42-1.28l1.23.77a4,4,0,0,1-3.63,1.92A4.46,4.46,0,0,1,228.44,115.6Z"/><path class="cls-2" d="M244,119.53a3,3,0,0,1-1.95.63,2.55,2.55,0,0,1-2.82-2.79v-4.89h-1.51v-1.33h1.51v-2h1.61v2h2.56v1.33h-2.56v4.82a1.32,1.32,0,0,0,1.4,1.5,2,2,0,0,0,1.26-.43Z"/><path class="cls-2" d="M244.79,119.11l.67-1.27a5.81,5.81,0,0,0,3.13.92c1.49,0,2.12-.45,2.12-1.21,0-2-5.63-.27-5.63-3.81,0-1.6,1.43-2.67,3.71-2.67a6.5,6.5,0,0,1,3.24.8l-.69,1.28a4.63,4.63,0,0,0-2.57-.71c-1.41,0-2.1.53-2.1,1.23,0,2.1,5.65.39,5.65,3.85,0,1.61-1.48,2.64-3.85,2.64A6.41,6.41,0,0,1,244.79,119.11Z"/><path class="cls-2" d="M267.62,118.59v1.47h-8.54V108.3h8.3v1.46h-6.62v3.61h5.9v1.43h-5.9v3.79Z"/><path class="cls-2" d="M275.58,120.06,273,116.65l-2.61,3.41h-1.79l3.51-4.56-3.35-4.35h1.8l2.45,3.21,2.44-3.21h1.76l-3.36,4.35,3.55,4.56Z"/><path class="cls-2" d="M288.39,115.6a4.33,4.33,0,0,1-4.5,4.56,3.81,3.81,0,0,1-3.11-1.45v4.6h-1.61V111.15h1.54v1.41a3.81,3.81,0,0,1,3.18-1.49A4.32,4.32,0,0,1,288.39,115.6Zm-1.63,0a3,3,0,1,0-3,3.15A2.94,2.94,0,0,0,286.76,115.6Z"/><path class="cls-2" d="M289.8,115.6a4.63,4.63,0,1,1,4.64,4.56A4.43,4.43,0,0,1,289.8,115.6Zm7.63,0a3,3,0,1,0-6,0,3,3,0,1,0,6,0Z"/><path class="cls-2" d="M306,108.3h1.68v11.76H306Z"/><path class="cls-2" d="M319.46,114.93v5.13h-1.61v-4.94c0-1.75-.88-2.61-2.41-2.61a2.65,2.65,0,0,0-2.82,3v4.59H311v-8.91h1.55v1.35a3.79,3.79,0,0,1,3.2-1.43C317.93,111.07,319.46,112.31,319.46,114.93Z"/><path class="cls-2" d="M330.9,107.59v12.47h-1.55v-1.42a3.75,3.75,0,0,1-3.17,1.52,4.55,4.55,0,0,1,0-9.09,3.78,3.78,0,0,1,3.1,1.43v-4.91Zm-1.6,8a3,3,0,1,0-6,0,3,3,0,1,0,6,0Z"/><path class="cls-2" d="M333.66,108.4a1.06,1.06,0,0,1,1.1-1.06,1,1,0,0,1,1.09,1,1.1,1.1,0,0,1-2.19,0Zm.29,2.75h1.61v8.91H334Z"/><path class="cls-2" d="M345.69,114.68v5.38h-1.53v-1.18a3.3,3.3,0,0,1-2.92,1.28c-2,0-3.29-1.08-3.29-2.62s.92-2.61,3.57-2.61h2.56v-.32c0-1.36-.79-2.15-2.39-2.15a4.48,4.48,0,0,0-2.82,1l-.67-1.21a5.91,5.91,0,0,1,3.68-1.14C344.31,111.07,345.69,112.24,345.69,114.68Zm-1.61,2.65v-1.24h-2.49c-1.59,0-2,.62-2,1.38s.74,1.44,2,1.44A2.58,2.58,0,0,0,344.08,117.33Z"/><path class="cls-5" d="M279.92,66.63l-.38-.08a5.86,5.86,0,0,0-.63,0,6.72,6.72,0,0,0-2.8.72,12.06,12.06,0,0,0-3,2A28.7,28.7,0,0,0,267.23,77c-1.57,2.91-2.34,5.31-2.32,7.18a4.53,4.53,0,0,0,1.07,3,3.14,3.14,0,0,0,2.51,1.21,14,14,0,0,0,6.77-2.29,42.33,42.33,0,0,0,8.15-6.53c.76-.77,1.65-1.73,2.68-2.89s1.85-1.89,2.12-1.89a.58.58,0,0,1,.49.25,1,1,0,0,1,.2.64,4.41,4.41,0,0,1-1.19,2.1,41.34,41.34,0,0,1-3.52,3.7,43.24,43.24,0,0,1-9,7.08,16.69,16.69,0,0,1-7.91,2.35,5.73,5.73,0,0,1-4.78-2.28,9.49,9.49,0,0,1-1.87-6,13.5,13.5,0,0,1,1.7-6.65,25.44,25.44,0,0,1,5.33-6.54,21.08,21.08,0,0,1,5.41-3.57,13.5,13.5,0,0,1,5.42-1.27,4.36,4.36,0,0,1,3.18,1.13,4.1,4.1,0,0,1,1.21,3.07,5.6,5.6,0,0,1-1.19,3.65,3.68,3.68,0,0,1-2.89,1.53,2.11,2.11,0,0,1-1.73-.74,3.15,3.15,0,0,1-.66-2,3.73,3.73,0,0,1,.9-2.35,8.62,8.62,0,0,1,2.6-2.13"/><path class="cls-5" d="M238.56,83.25l9.58-12.17A8.06,8.06,0,0,0,249,69.7a3.38,3.38,0,0,0,.3-1.31,1,1,0,0,0-1.12-1.06,8.14,8.14,0,0,0-3.75,1.43,26.12,26.12,0,0,0-4.74,3.89,41.88,41.88,0,0,0-6.54,8.2c-1.71,2.84-2.57,4.92-2.56,6.24a1.66,1.66,0,0,0,.37,1.1,1.14,1.14,0,0,0,.91.42,5.41,5.41,0,0,0,2.95-1.45,20.82,20.82,0,0,0,3.75-3.91m.35,2.09a25.81,25.81,0,0,1-4.63,4.4,7.17,7.17,0,0,1-3.83,1.49,3.06,3.06,0,0,1-2.76-1.51,8,8,0,0,1-1-4.31A15.26,15.26,0,0,1,228,79.08a20.18,20.18,0,0,1,4.12-5.92A31.51,31.51,0,0,1,239.83,67a15.85,15.85,0,0,1,7.35-2.31,3.89,3.89,0,0,1,2.67.76,3.84,3.84,0,0,1,1,2.6,14.59,14.59,0,0,1,1.35-1.56,15,15,0,0,1,1.74-1.48c.22,0,.55,0,1-.06l.93,0a5.75,5.75,0,0,1,2.11.25.92.92,0,0,1,.64.9c0,.39-.64,1.27-1.92,2.63-.7.73-1.25,1.31-1.67,1.73a133,133,0,0,0-8.74,10.78c-2.11,3-3.16,5-3.15,6a1.37,1.37,0,0,0,.24.87,1.14,1.14,0,0,0,.87.24c1.23,0,3.06-.72,5.46-2.14a47.41,47.41,0,0,0,7.61-5.78c1.11-1,2.31-2.16,3.59-3.49s2.05-2,2.3-2a.58.58,0,0,1,.49.25,1,1,0,0,1,.19.63c0,.59-1.54,2.39-4.66,5.42l-.22.21a50,50,0,0,1-8.88,7q-4.25,2.55-7,2.56A4,4,0,0,1,240,89.79a4.81,4.81,0,0,1-1.19-3.37,6.06,6.06,0,0,1,0-.68A2.57,2.57,0,0,1,238.91,85.34Z"/><path class="cls-5" d="M320.11,82.45l9.58-12.17a7.48,7.48,0,0,0,.85-1.38,3.2,3.2,0,0,0,.3-1.3,1,1,0,0,0-.31-.78,1.11,1.11,0,0,0-.8-.29A8.16,8.16,0,0,0,326,68a26.47,26.47,0,0,0-4.74,3.89,42.26,42.26,0,0,0-6.54,8.2c-1.71,2.84-2.57,4.92-2.55,6.24a1.6,1.6,0,0,0,.37,1.11,1.15,1.15,0,0,0,.91.41,5.47,5.47,0,0,0,2.95-1.45,21.44,21.44,0,0,0,3.74-3.91m.35,2.09a25.49,25.49,0,0,1-4.63,4.4A7.14,7.14,0,0,1,312,90.43a3.07,3.07,0,0,1-2.77-1.51,8,8,0,0,1-1-4.31,15,15,0,0,1,1.29-6.33,20,20,0,0,1,4.11-5.92,31.69,31.69,0,0,1,7.74-6.12,15.85,15.85,0,0,1,7.36-2.31,3.1,3.1,0,0,1,3.66,3.36,12.63,12.63,0,0,1,1.35-1.56,13.52,13.52,0,0,1,1.74-1.48c.21,0,.54,0,1-.06l.93,0a5.54,5.54,0,0,1,2.11.25.9.9,0,0,1,.64.9c0,.39-.64,1.27-1.92,2.63-.69.73-1.25,1.31-1.66,1.73a133,133,0,0,0-8.75,10.78c-2.11,3-3.16,5-3.14,6a1.32,1.32,0,0,0,.23.87,1.14,1.14,0,0,0,.87.24q1.86,0,5.46-2.14a47.41,47.41,0,0,0,7.61-5.78c1.12-1,2.31-2.16,3.59-3.49s2.06-2,2.3-2a.58.58,0,0,1,.49.25,1,1,0,0,1,.19.64q0,.87-4.66,5.41l-.21.21a49.73,49.73,0,0,1-8.89,7q-4.25,2.55-6.95,2.56a4,4,0,0,1-3.1-1.21,4.77,4.77,0,0,1-1.2-3.37c0-.31,0-.53,0-.68S320.44,84.66,320.46,84.54Z"/><path class="cls-5" d="M291.53,78.41a25,25,0,0,0,9.52-4.54c2.56-2.07,3.83-4,3.82-5.75a2.39,2.39,0,0,0-.31-1.34,1.21,1.21,0,0,0-1-.38c-1.39,0-3.13,1-5.15,3.08a56.72,56.72,0,0,0-6.86,8.93m-1.19,3a9.92,9.92,0,0,0-.56,1.82,6.74,6.74,0,0,0-.17,1.57,3.35,3.35,0,0,0,.88,2.45,3.17,3.17,0,0,0,2.4.87,13.35,13.35,0,0,0,6.47-2.35,48.93,48.93,0,0,0,8.15-6.55c.75-.76,1.66-1.73,2.74-2.92s1.77-1.77,2-1.77a.62.62,0,0,1,.53.25,1,1,0,0,1,.19.63,4.05,4.05,0,0,1-1.11,1.92c-.76.9-2.07,2.31-3.92,4.19a39.31,39.31,0,0,1-8.36,6.62,15.77,15.77,0,0,1-7.36,2.41,6,6,0,0,1-4.87-2.12,8.94,8.94,0,0,1-1.87-5.89,13.9,13.9,0,0,1,1.75-6.71,23.19,23.19,0,0,1,5.2-6.38,27.31,27.31,0,0,1,5.66-3.91A11.34,11.34,0,0,1,303,64.18a4.24,4.24,0,0,1,2.86.73,3.47,3.47,0,0,1,.88,2.64c0,2.54-1.53,5.18-4.69,7.94A27.55,27.55,0,0,1,290.34,81.38Z"/><path class="cls-5" d="M193.73,91.1a3.56,3.56,0,0,1-1,.23q-.6.08-2,.09a7.51,7.51,0,0,1-1.92-.14c-.33-.08-.49-.26-.49-.53,0-.59,1.22-2.22,3.66-4.92,1.64-1.82,3-3.35,4-4.57l1-1.08c5.62-6.51,8.41-10.24,8.41-11.19a1.29,1.29,0,0,0-.14-.62.34.34,0,0,0-.33-.21,5.51,5.51,0,0,0-3,1.36,44.83,44.83,0,0,0-5.11,4.78c-.57.56-1.22,1.27-2,2.14-1,1.16-1.71,1.75-2.06,1.76a.77.77,0,0,1-.55-.24.85.85,0,0,1-.2-.6c0-.47,1-1.74,2.95-3.84.41-.42.73-.78.95-1A40.92,40.92,0,0,1,202.1,67a8.59,8.59,0,0,1,4.49-1.84,2.33,2.33,0,0,1,2.06,1,5.38,5.38,0,0,1,.76,3.09c0,.24,0,.52,0,.84s-.06.81-.1,1.44A53.58,53.58,0,0,1,216,66.58a9.61,9.61,0,0,1,4.38-1.49,2.67,2.67,0,0,1,2.14.92,3.94,3.94,0,0,1,.8,2.56,7.52,7.52,0,0,1-1,3.63,38.06,38.06,0,0,1-4.35,5.65c-.58.66-1.42,1.58-2.51,2.78q-5.07,5.67-5.06,6.86a1.12,1.12,0,0,0,.38.87,1.42,1.42,0,0,0,1,.34c1.24,0,3-.72,5.39-2.14a50,50,0,0,0,7.56-5.78c1.14-1,2.35-2.16,3.63-3.49s2-2,2.3-2a.58.58,0,0,1,.49.25,1,1,0,0,1,.19.63c0,.59-1.54,2.38-4.62,5.37l-.22.2a54.44,54.44,0,0,1-8.85,7c-2.83,1.72-5,2.6-6.52,2.62a4.07,4.07,0,0,1-3.09-1.2,4.4,4.4,0,0,1-1.21-3.19,11,11,0,0,1,1.49-5.2A25.07,25.07,0,0,1,212.68,76c.61-.65,1.44-1.48,2.51-2.55,2.57-2.59,3.87-4.11,3.86-4.57a.74.74,0,0,0-.29-.59A1.14,1.14,0,0,0,218,68q-2.41,0-9.32,6.47a158.19,158.19,0,0,0-15,16.6"/><path class="cls-5" d="M168.8,83.94l9.58-12.17a7.54,7.54,0,0,0,.85-1.39,3.36,3.36,0,0,0,.31-1.3,1,1,0,0,0-.31-.77,1.11,1.11,0,0,0-.81-.3,8.2,8.2,0,0,0-3.76,1.44,26.38,26.38,0,0,0-4.74,3.88,42.11,42.11,0,0,0-6.53,8.2c-1.72,2.85-2.58,4.93-2.56,6.24a1.6,1.6,0,0,0,.37,1.11,1.16,1.16,0,0,0,.91.41,5.49,5.49,0,0,0,2.95-1.44,21.44,21.44,0,0,0,3.74-3.91m.36,2.08a25.93,25.93,0,0,1-4.64,4.41,7.2,7.2,0,0,1-3.82,1.48,3.06,3.06,0,0,1-2.77-1.5,8.13,8.13,0,0,1-1-4.32,15.14,15.14,0,0,1,1.29-6.33,19.91,19.91,0,0,1,4.11-5.91,31.74,31.74,0,0,1,7.74-6.13,16,16,0,0,1,7.36-2.31,3.11,3.11,0,0,1,3.66,3.37,11.94,11.94,0,0,1,1.35-1.56,13.57,13.57,0,0,1,1.74-1.49c.21,0,.54,0,1-.06l.94,0a5.72,5.72,0,0,1,2.1.25.9.9,0,0,1,.64.9c0,.39-.63,1.27-1.92,2.63l-1.66,1.74a132.68,132.68,0,0,0-8.74,10.77c-2.12,3-3.16,5-3.15,6a1.26,1.26,0,0,0,.24.87,1.15,1.15,0,0,0,.86.25q1.86,0,5.46-2.14a47.08,47.08,0,0,0,7.61-5.79c1.12-1,2.31-2.16,3.59-3.49s2.06-2,2.3-2a.58.58,0,0,1,.49.25,1,1,0,0,1,.2.64c0,.59-1.55,2.39-4.67,5.42l-.21.2a50.61,50.61,0,0,1-8.88,7q-4.26,2.53-7,2.56a4,4,0,0,1-3.1-1.22,4.75,4.75,0,0,1-1.2-3.37c0-.3,0-.52,0-.67A2.52,2.52,0,0,1,169.16,86Z"/><path class="cls-5" d="M162.35,61.52l1,.14a5.37,5.37,0,0,0,.76,0,12.52,12.52,0,0,0,5.8-1.7A25.45,25.45,0,0,0,176,55.22a41.33,41.33,0,0,0,7.42-10.48A23,23,0,0,0,186,34.6a11.85,11.85,0,0,0-.5-3.33,11.63,11.63,0,0,0-1.55-3.12c-2.14,1.79-5,5.39-8.44,10.76s-7.87,12.92-13.15,22.61m-1.7,2.34q-7.86,14.22-17.24,21.47a32.87,32.87,0,0,1-20.11,7.36q-7.17.06-11.33-3.13a10.52,10.52,0,0,1-4.21-8.71,8.09,8.09,0,0,1,1.4-5,4.45,4.45,0,0,1,3.67-2,3.55,3.55,0,0,1,2.83,1.24,4.53,4.53,0,0,1,1.12,3.12,3.85,3.85,0,0,1-1,2.84A3.68,3.68,0,0,1,113,82.18a7,7,0,0,1-1-.14,5.61,5.61,0,0,0-1.09-.15.38.38,0,0,0-.32.21,1.89,1.89,0,0,0-.09.74c0,2,1.12,3.7,3.3,5.14A14.2,14.2,0,0,0,122,90.09c5.25,0,10.4-2.21,15.41-6.47s11.12-11.88,18.32-22.88a8.22,8.22,0,0,1-1.31-2.29,7.86,7.86,0,0,1-.47-2.71,8.62,8.62,0,0,1,1.93-5.56c1.31-1.64,2.68-2.48,4.15-2.5a1.56,1.56,0,0,1,1,.31,1,1,0,0,1,.41.81c0,.52-.65,1.08-2,1.65-.39.17-.71.29-.93.4a4.5,4.5,0,0,0-2,1.9,5.83,5.83,0,0,0-.7,3,4.17,4.17,0,0,0,.35,1.65,3.75,3.75,0,0,0,.9,1.24l1.16-1.68q16-23.74,23.88-31a25.87,25.87,0,0,0-8.17-4.7,28.28,28.28,0,0,0-9.67-1.49A43.69,43.69,0,0,0,148,23.2a54.15,54.15,0,0,0-15.14,9.49,40.06,40.06,0,0,0-8.74,10.48,21,21,0,0,0-3,10.45,8.74,8.74,0,0,0,2.45,6.27,8.11,8.11,0,0,0,6.2,2.44q5.08-.06,11.06-4.84a50.4,50.4,0,0,0,11-13.05A45.7,45.7,0,0,0,156,35.7c1.12-3.11,1.85-4.68,2.19-4.69.13,0,.25.12.33.32a5.76,5.76,0,0,1,.11,1.11,24.84,24.84,0,0,1-1.08,6.48,41,41,0,0,1-13.69,21,22.13,22.13,0,0,1-13.42,4.81A10.65,10.65,0,0,1,119,53.56a22.78,22.78,0,0,1,3.18-11.33A42.73,42.73,0,0,1,131.5,31a55.48,55.48,0,0,1,15.81-9.89,46.09,46.09,0,0,1,17.1-3.57A29.2,29.2,0,0,1,175,19.28a28.57,28.57,0,0,1,9,5.52,45,45,0,0,1,4.49-3.41,7.2,7.2,0,0,1,2.65-1.31,1.58,1.58,0,0,1,.79.16.64.64,0,0,1,.26.57c0,.49-.82,1.3-2.46,2.42a37.64,37.64,0,0,0-4.31,3.37,14.52,14.52,0,0,1,2.82,5.13,22.63,22.63,0,0,1,1,6.77,26.09,26.09,0,0,1-2.08,10.72,26.77,26.77,0,0,1-6.53,9,23,23,0,0,1-7.05,4.55,20.6,20.6,0,0,1-7.81,1.66,20,20,0,0,1-2.34-.13C162.55,64.18,161.63,64,160.65,63.86Z"/><rect class="cls-4" x="107.76" y="99.73" width="237.71" height="1.2"/></svg>