<svg id="Layer_1" data-name="Layer 1" xmlns="http://www.w3.org/2000/svg" width="235" height="235" viewBox="0 0 235 235"><defs><style>.cls-1{fill:#175d62;}.cls-2{fill:#f3b51b;}</style></defs><path class="cls-1" d="M230,112.5h-4.32A108,108,0,0,0,122.5,9.77V5a5,5,0,0,0-10,0V9.8A108,108,0,0,0,10.2,112.5H5a5,5,0,0,0,0,10h5.19A108,108,0,0,0,112.5,225.25V230a5,5,0,0,0,10,0v-4.72A108,108,0,0,0,225.68,122.5H230a5,5,0,0,0,0-10ZM122.5,215.27V204.79a5,5,0,1,0-10,0v10.44A98,98,0,0,1,20.2,122.5h10a5,5,0,1,0,0-10h-10a98,98,0,0,1,92.3-92.68V30.21a5,5,0,1,0,10,0V19.77a98,98,0,0,1,93.17,92.73H204.79a5,5,0,1,0,0,10h10.88A98,98,0,0,1,122.5,215.27Z"/><path class="cls-2" d="M138.88,126.86c16.9,0,30.65-14.61,30.65-32.57s-13.75-32.57-30.65-32.57-30.64,14.61-30.64,32.57S122,126.86,138.88,126.86Zm0-55.14c11.39,0,20.65,10.13,20.65,22.57s-9.26,22.57-20.65,22.57-20.64-10.13-20.64-22.57S127.5,71.72,138.88,71.72Z"/><path class="cls-2" d="M79.25,126.76c12.73,0,23.1-11,23.1-24.45S92,77.85,79.25,77.85s-23.1,11-23.1,24.46S66.51,126.76,79.25,126.76Zm0-38.91c7.22,0,13.1,6.49,13.1,14.46s-5.88,14.45-13.1,14.45-13.1-6.48-13.1-14.45S72,87.85,79.25,87.85Z"/><path class="cls-2" d="M175.69,141.1c-7.21-4.42-20.36-12.45-20.36-12.45a5,5,0,0,0-4.84-.2c-.88.43-1.6.83-2.25,1.19-2.15,1.2-3,1.65-9.09,1.65-6.42,0-7.35-.5-9.83-1.83-.58-.31-1.21-.65-1.94-1a5,5,0,0,0-4.85.2l-16.06,9.82c-.38-.26-.78-.51-1.19-.76l-14-8.53a5,5,0,0,0-4.84-.21c-.58.29-1.06.56-1.51.8-1.39.77-1.81,1-5.69,1s-4.31-.24-5.72-1c-.45-.24-.93-.5-1.5-.79a5,5,0,0,0-4.84.21l-14,8.53c-5.09,3.12-8.48,6.42-8.48,12.39,0,6.91,4.48,11.37,11.41,11.37H91.38c1.51,6.3,6.54,10.06,13.87,10.06h67.37c8.85,0,14.36-5.48,14.36-14.3C187,149.56,182.66,145.37,175.69,141.1Zm-72,20.31c-2.09-.33-2.79-1.48-2.79-4.18,0-.26,0-.51,0-.76.09-1.71.81-3.36,6.5-6.85l1.28-.78,4.48-2.74,12.17-7.44c3.3,1.73,5.86,2.63,13.82,2.63,7.54,0,10-.76,13.41-2.61l17.91,10.94c6.51,4,6.51,5.59,6.51,7.61,0,3.3-1,4.3-4.36,4.3H105.25A10.24,10.24,0,0,1,103.68,161.41ZM55,151.32h0a2.93,2.93,0,0,1-.19-1.22c0-.89,0-1.59,3.7-3.87l11.52-7c2.25,1.09,4.33,1.58,9.27,1.58s7-.49,9.25-1.58l8.72,5.33a16.87,16.87,0,0,0-5.36,6.95H56.21A3.79,3.79,0,0,1,55,151.32Z"/></svg>