<svg id="Layer_1" data-name="Layer 1" xmlns="http://www.w3.org/2000/svg" width="235" height="235" viewBox="0 0 235 235"><defs><style>.cls-1{fill:#175d62;}.cls-2{fill:#f3b51b;}</style></defs><path class="cls-1" d="M198.9,45.63H183.17V5.12A5,5,0,0,0,176.65.36L34.57,45.87l-.19.08a4.46,4.46,0,0,0-.5.22l-.41.22a4.73,4.73,0,0,0-.39.28c-.13.1-.26.2-.38.31a3.4,3.4,0,0,0-.32.34,3.57,3.57,0,0,0-.31.37,3.54,3.54,0,0,0-.26.41c-.08.13-.16.27-.23.41s-.12.3-.18.45-.1.31-.14.47a3.58,3.58,0,0,0-.09.45,3.29,3.29,0,0,0-.05.54,1.49,1.49,0,0,0,0,.21V230.12a5,5,0,0,0,5,5H198.9a5,5,0,0,0,5-5V50.63A5,5,0,0,0,198.9,45.63Zm-25.73,0H68.1L173.17,12ZM193.9,225.12H41.1V55.63H193.9Z"/><polygon class="cls-2" points="170.56 127.5 167.84 89.04 127.54 98.78 129.89 108.5 150.99 103.4 114.58 152.27 95.81 134.34 60.45 174.93 67.98 181.5 96.47 148.8 115.85 167.31 159.23 109.07 160.58 128.21 170.56 127.5"/></svg>