<svg id="Layer_1" data-name="Layer 1" xmlns="http://www.w3.org/2000/svg" width="235" height="235" viewBox="0 0 235 235"><defs><style>.cls-1{fill:#175d62;}.cls-2{fill:#f3b51b;}</style></defs><path class="cls-1" d="M230,234.78H5a5,5,0,0,1-5-5V5.25a5,5,0,0,1,5-5H230a5,5,0,0,1,5,5V229.78A5,5,0,0,1,230,234.78Zm-220-10H225V10.25H10Z"/><path class="cls-1" d="M118,158.1a40.32,40.32,0,1,1,40.31-40.32A40.37,40.37,0,0,1,118,158.1Zm0-70.64a30.32,30.32,0,1,0,30.31,30.32A30.35,30.35,0,0,0,118,87.46Z"/><path class="cls-2" d="M133.34,46.89,119.77,24.8a2.5,2.5,0,0,0-4.26,0L102,46.89a2.45,2.45,0,0,0,0,2.52,2.49,2.49,0,0,0,2.18,1.28h8.52V69.61h10V50.69h8.61a2.5,2.5,0,0,0,2.13-3.8Z"/><path class="cls-2" d="M133.39,186.13a2.5,2.5,0,0,0-2.18-1.28h-8.52V165.93h-10v18.92h-8.61a2.5,2.5,0,0,0-2.13,3.81l13.56,22.08a2.5,2.5,0,0,0,4.26,0l13.57-22.08A2.52,2.52,0,0,0,133.39,186.13Z"/><path class="cls-2" d="M210.61,115.64l-22.08-13.56a2.5,2.5,0,0,0-3.81,2.13v8.51H165.8v10h18.92v8.62a2.51,2.51,0,0,0,2.5,2.5,2.57,2.57,0,0,0,1.31-.37l22.08-13.57a2.49,2.49,0,0,0,0-4.26Z"/><path class="cls-2" d="M69.48,112.82H50.56v-8.61a2.49,2.49,0,0,0-3.8-2.13L24.67,115.64a2.5,2.5,0,0,0,0,4.26l22.09,13.57a2.5,2.5,0,0,0,2.53.05,2.49,2.49,0,0,0,1.27-2.18v-8.52H69.48Z"/><path class="cls-2" d="M127.1,120.8a8.12,8.12,0,0,0-3-3.16,24.64,24.64,0,0,0-6-2.23q-4-1.08-5.07-2.08a2.5,2.5,0,0,1-.83-1.88,2.38,2.38,0,0,1,.88-1.93,5.75,5.75,0,0,1,3.77-1.12,5.1,5.1,0,0,1,3.5,1,5.64,5.64,0,0,1,1.52,3.44l5.52-.28a9.64,9.64,0,0,0-2.73-6.84,8.5,8.5,0,0,0-3.75-2.06V96h-6.38v7.38a10.92,10.92,0,0,0-3,.91,7.75,7.75,0,0,0-3.41,3.14,8.79,8.79,0,0,0-1.18,4.44,8.57,8.57,0,0,0,2.51,6.25c1.2,1.21,3.27,2.24,6.23,3.07,2.3.65,3.78,1.1,4.42,1.36a4.51,4.51,0,0,1,2,1.34,3.09,3.09,0,0,1,.57,1.88,4,4,0,0,1-1.35,3,5.61,5.61,0,0,1-4,1.29,5.46,5.46,0,0,1-4-1.45,7.79,7.79,0,0,1-2-4.51l-5.37.6c.36,3.47,1.46,6.11,3.32,7.93a9.52,9.52,0,0,0,5.27,2.5V140h6.38V135a11.31,11.31,0,0,0,2.26-.76,8.17,8.17,0,0,0,3.7-3.47,10,10,0,0,0,1.3-5A10.18,10.18,0,0,0,127.1,120.8Z"/></svg>