<svg id="Layer_1" data-name="Layer 1" xmlns="http://www.w3.org/2000/svg" width="235" height="235" viewBox="0 0 235 235"><defs><style>.cls-1{fill:#175d62;}.cls-2{fill:#f3b51b;}</style></defs><path class="cls-1" d="M135.29,52.17H99.83c-13.52,0-23,9.59-23,23.32V95.11a5,5,0,0,0,5,5h71.38a5,5,0,0,0,5-5V75.49C158.25,61.76,148.8,52.17,135.29,52.17Zm13,37.94h-8.36V81.4a5,5,0,0,0-10,0v8.71H105.15V81.4a5,5,0,0,0-10,0v8.71H86.87V75.49c0-9.83,7-13.32,13-13.32h35.46c6,0,13,3.49,13,13.32Z"/><path class="cls-1" d="M117.6,46.81A23.32,23.32,0,1,0,94.28,23.49,23.34,23.34,0,0,0,117.6,46.81Zm0-36.63a13.32,13.32,0,1,1-13.32,13.31A13.33,13.33,0,0,1,117.6,10.18Z"/><path class="cls-1" d="M212,186.89H176.59c-13.52,0-23,9.59-23,23.32v19.61a5,5,0,0,0,5,5H230a5,5,0,0,0,5-5V210.21C235,196.48,225.56,186.89,212,186.89Zm13,37.93h-8.36v-8.71a5,5,0,0,0-10,0v8.71H181.9v-8.71a5,5,0,0,0-10,0v8.71h-8.28V210.21c0-9.83,7-13.32,13-13.32H212c6,0,13,3.49,13,13.32Z"/><path class="cls-1" d="M194.35,181.53A23.32,23.32,0,1,0,171,158.21,23.34,23.34,0,0,0,194.35,181.53Zm0-36.64A13.32,13.32,0,1,1,181,158.21,13.34,13.34,0,0,1,194.35,144.89Z"/><path class="cls-1" d="M58.41,186.89H23c-13.52,0-23,9.59-23,23.32v19.61a5,5,0,0,0,5,5H76.38a5,5,0,0,0,5-5V210.21C81.38,196.48,71.93,186.89,58.41,186.89Zm13,37.93H63v-8.71a5,5,0,0,0-10,0v8.71H28.28v-8.71a5,5,0,0,0-10,0v8.71H10V210.21c0-9.83,7-13.32,13-13.32H58.41c6,0,13,3.49,13,13.32Z"/><path class="cls-1" d="M40.73,181.53a23.32,23.32,0,1,0-23.32-23.32A23.34,23.34,0,0,0,40.73,181.53Zm0-36.64a13.32,13.32,0,1,1-13.32,13.32A13.33,13.33,0,0,1,40.73,144.89Z"/><path class="cls-2" d="M146.57,164.55l-24.13-23.47V111.3a5,5,0,0,0-10,0v29.1L87.59,164.68a5,5,0,0,0,7,7.15l22.51-22,22.51,21.89a5,5,0,0,0,7-7.17Z"/></svg>